<?xml version="1.0" standalone="no"?><!DOCTYPE svg PUBLIC "-//W3C//DTD SVG 1.1//EN" "http://www.w3.org/Graphics/SVG/1.1/DTD/svg11.dtd"><svg class="icon" width="100px" height="100.00px" viewBox="0 0 1024 1024" version="1.1" xmlns="http://www.w3.org/2000/svg"><path d="M845.7 641h0.1l-0.1-21.1z" fill="#D6D6D6" /><path d="M307.9 318.2h-73.8c-20 0-28.1 9.8-28.1 17.3v443.2c0 7.6 12.6 13.8 28.1 13.8h73.8c15.6 0 28.2-6.1 28.2-13.8V335.5c0-7.5-7.4-17.3-28.2-17.3z" fill="#AEC14E" /><path d="M302.3 327.3h-62.6c-16.9 0-23.8 9.2-23.8 16.3v426.9c0 7.1 10.7 12.9 23.8 12.9h62.6c13.2 0 23.9-5.8 23.9-12.9v-427c0-7-6.2-16.2-23.9-16.2z" fill="#CED88D" opacity=".4" /><path d="M302.3 327.3h-62.6c-16.9 0-23.8 9.2-23.8 16.3v426.9c0 4.5 8.4-302.9 40.8-378.3 18.9-43.9 69.6-48.6 69.6-48.6-0.1-7.1-6.3-16.3-24-16.3z" fill="#DBE4AE" opacity=".3" /><path d="M480.4 230.2h-73.8c-20 0-28.2 9.8-28.2 17.4v531.1c0 7.6 12.6 13.8 28.2 13.8h73.8c15.6 0 28.2-6.1 28.2-13.8v-531c-0.1-7.7-7.4-17.5-28.2-17.5z" fill="#AEC14E" /><path d="M472.3 240.8h-57.7c-15.7 0-22 9.3-22 16.4V768.9c0 7.2 9.8 13 22 13h57.7c12.2 0 22-5.8 22-13V257.3c0-7.2-5.7-16.5-22-16.5z" fill="#CED88D" opacity=".4" /><path d="M472.3 240.8h-57.7c-15.7 0-22 9.3-22 16.4V768.9c0 7.2 13-460.2 36.5-485.4 24-25.6 65.2-26.3 65.2-26.3 0-7.1-5.7-16.4-22-16.4z" fill="#DBE4AE" opacity=".3" /><path d="M671.1 778.7c0 7.6-12.5 13.8-28.2 13.8h-73.7c-15.6 0-28.2-6.1-28.2-13.8V329.8c0-7.6 8.2-17.4 28.2-17.4h73.7c20.9 0 28.2 9.8 28.2 17.4v448.9z" fill="#AEC14E" /><path d="M660.1 770.4c0 7.2-10.4 12.9-23.4 12.9h-61.2c-13 0-23.4-5.8-23.4-12.9V337.9c0-7.2 6.8-16.4 23.4-16.4h61.2c17.3 0 23.4 9.2 23.4 16.4v432.5z" fill="#CED88D" opacity=".4" /><path d="M586.2 380.3C556.1 453.2 552 774.5 552 770.4V337.9c0-7.2 6.8-16.4 23.4-16.4h61.2c17.3 0 23.4 9.2 23.4 16.4 0.1 0-50.8-13-73.8 42.4z" fill="#DBE4AE" opacity=".4" /><path d="M833 780c0 7.6-12.5 13.8-28.2 13.8h-73.7c-15.5 0-28.2-6.1-28.2-13.8V378.4c0-7.6 8.2-17.4 28.2-17.4h73.7c20.8 0 28.2 9.8 28.2 17.4V780z" fill="#AEC14E" /><path d="M823.5 771.7c0 7.1-10.7 12.7-24.1 12.7h-63c-13.3 0-24.1-5.7-24.1-12.7V386.5c0-7 7-16.2 24.1-16.2h63c17.8 0 24.1 9.1 24.1 16.2v385.2z" fill="#CED88D" opacity=".4" /><path d="M751.3 418c-32.1 62-38.9 357.9-38.9 353.7V386.5c0-7 7-16.2 24.1-16.2h63c17.8 0 24.1 9.1 24.1 16.2-0.1 0-51.4-8.8-72.3 31.5z" fill="#DBE4AE" opacity=".4" /><path d="M866.7 239.9l-98.2 16.9 35.3 32.5c-32.7 41.4-135.2 171.1-138 174.6-4.8 2-181.4 76.5-189 79.7-7.7-3-174.7-67.4-174.7-67.4l-144.9 81.9 10.4 18.7s127.8-72.4 136.1-77c8.8 3.4 173.5 66.9 173.5 66.9l202-85.2 140.4-177.7 33.5 30.8 13.6-94.7z" fill="#C17434" /><path d="M810.9 287.2s-34.8-28.1-29.4-29.4c5.3-1.4 80.3-13.4 80.3-13.4s-38.9 44.1-50.9 42.8z" fill="#D69F65" opacity=".6" /></svg>