<?xml version="1.0" standalone="no"?><!DOCTYPE svg PUBLIC "-//W3C//DTD SVG 1.1//EN" "http://www.w3.org/Graphics/SVG/1.1/DTD/svg11.dtd"><svg class="icon" width="100px" height="100.00px" viewBox="0 0 1024 1024" version="1.1" xmlns="http://www.w3.org/2000/svg"><path d="M502.426868 523.018133m-224.336414 0a224.336414 224.336414 0 1 0 448.672828 0 224.336414 224.336414 0 1 0-448.672828 0Z" fill="#E9EAEB" /><path d="M409.87455 267.758696A248.034432 248.034432 0 0 1 612.824949 359.805264l-75.934806 47.901785 276.139702 115.600084V229.682918l-71.599802 48.985536a331.121993 331.121993 0 0 0-251.791434-104.690327 327.50949 327.50949 0 0 0-283.942708 187.850138l11.776758 8.092006a249.912933 249.912933 0 0 1 192.401891-102.161575z" fill="#A3D4FF" /><path d="M830.369858 549.100402L499.609116 410.813801l86.700063-54.83779A232.50067 232.50067 0 0 0 231.200169 380.107528l-9.898257 13.65526-37.425527-26.515769 6.213504-13.22176a343.982502 343.982502 0 0 1 553.579906-97.898821l86.700063-59.317294zM574.243421 404.600296l221.590912 92.552318V262.412192l-56.788542 38.870529-10.115007-10.693008a312.625979 312.625979 0 0 0-238.425175-99.343823 309.230226 309.230226 0 0 0-221.952162 105.485077 266.169195 266.169195 0 0 1 140.670853-46.240034 264.868694 264.868694 0 0 1 216.750158 98.404573l12.282509 15.100261z" fill="#2A5082" /><path d="M787.525577 656.102731a249.768433 249.768433 0 0 1-395.42454 10.115007l76.079306-47.901785L191.82389 505.75037v293.407465l71.816553-51.803288a331.121993 331.121993 0 0 0 251.791435 104.690327 327.50949 327.50949 0 0 0 284.014958-187.850138z" fill="#A3D4FF" /><path d="M503.582869 869.601637a347.306004 347.306004 0 0 1-241.820927-99.560573l-87.205814 62.857546V480.101602L505.75037 614.99245l-87.133563 54.982291a229.755168 229.755168 0 0 0 176.001129 71.021802 232.28392 232.28392 0 0 0 179.180131-95.08107l10.042757-13.65526 37.425528 26.51577-6.213505 13.149509a344.054752 344.054752 0 0 1-298.970719 197.459395c-4.190503 0.07225-8.381006 0.21675-12.499259 0.21675z m-237.702674-145.005856l10.404007 10.982008a312.625979 312.625979 0 0 0 238.425175 99.343823 309.157976 309.157976 0 0 0 221.735412-105.557328 267.325196 267.325196 0 0 1-357.710012-52.164538l-12.282509-15.100261L430.610315 621.350455 209.091653 531.471389v234.017922z" fill="#2A5082" /><path d="M1017.136245 570.125168l-34.535525-3.757003c1.372751-12.643759 2.239752-23.192267 2.601002-33.090524a474.682848 474.682848 0 0 0-455.175334-493.540112L531.760389 5.346504A509.218373 509.218373 0 0 1 1019.953997 534.650392c-0.4335 10.765258-1.228251 22.036266-2.817752 35.474776zM60.256544 750.67805a509.146123 509.146123 0 0 1 246.372681-702.920765L320.501235 79.475058a474.610598 474.610598 0 0 0-229.682918 655.30798zM510.952374 1023.34975q-10.187257 0-20.446765-0.433501A506.617371 506.617371 0 0 1 209.525153 924.800677l20.446765-27.81627a474.755098 474.755098 0 0 0 682.3295-128.821844l28.900021 18.496013a511.313624 511.313624 0 0 1-430.249065 236.691174z" fill="#BCC0C4" /></svg>