<?xml version="1.0" standalone="no"?><!DOCTYPE svg PUBLIC "-//W3C//DTD SVG 1.1//EN" "http://www.w3.org/Graphics/SVG/1.1/DTD/svg11.dtd"><svg t="1623823504564" class="icon" viewBox="0 0 1024 1024" version="1.1" xmlns="http://www.w3.org/2000/svg" p-id="7615" xmlns:xlink="http://www.w3.org/1999/xlink" width="100" height="100"><defs><style type="text/css"></style></defs><path d="M514.304 908.0832c-217.3952 0-394.24-176.8448-394.24-394.24s176.8448-394.24 394.24-394.24 394.24 176.8448 394.24 394.24c0 25.1904-2.4064 50.3808-7.1168 74.9056a25.60512 25.60512 0 0 1-29.952 20.3264 25.60512 25.60512 0 0 1-20.3264-29.952c4.096-21.3504 6.1952-43.3152 6.1952-65.28 0-189.1328-153.9072-343.04-343.04-343.04s-343.04 153.9072-343.04 343.04 153.9072 343.04 343.04 343.04c90.8288 0 176.4352-35.1232 241.0496-98.9696a25.62048 25.62048 0 0 1 36.1984 0.2048 25.62048 25.62048 0 0 1-0.2048 36.1984c-74.2912 73.3696-172.6464 113.7664-277.0432 113.7664z" fill="#474747" p-id="7616"></path><path d="M828.6208 732.16c-4.5568 0-9.216-1.2288-13.3632-3.7888-12.032-7.424-15.8208-23.1936-8.3968-35.2256 7.4752-12.1856 14.2848-24.9344 20.1728-37.9904a25.57952 25.57952 0 0 1 33.8944-12.7488 25.57952 25.57952 0 0 1 12.7488 33.8944c-6.8096 15.0016-14.592 29.696-23.1936 43.6736a25.61024 25.61024 0 0 1-21.8624 12.1856z" fill="#474747" p-id="7617"></path><path d="M514.9696 413.7472c11.5712 0.0512 22.6304 2.2016 32.9728 5.888l51.2-140.6464a250.33728 250.33728 0 0 0-84.1728-14.7968v149.5552zM428.032 463.3088c5.6832-9.728 12.9536-18.3808 21.504-25.6512L353.3824 323.072c-21.8624 18.432-40.448 40.6016-54.9376 65.4336L428.032 463.3088z" fill="#FFE783" p-id="7618"></path><path d="M600.6272 463.3088l129.536-74.8032a251.08992 251.08992 0 0 0-54.9376-65.4336L579.072 437.6576c8.6016 7.2192 15.8208 15.9232 21.5552 25.6512z" fill="#AEDEFC" p-id="7619"></path><path d="M549.12 420.096c10.6496 3.9424 20.48 9.5744 29.0304 16.6912l96.1024-114.5344a249.00096 249.00096 0 0 0-73.984-42.8032l-51.1488 140.6464z" fill="#B1F2E8" p-id="7620"></path><path d="M730.8288 389.5808l-129.536 74.8032c5.4784 9.6256 9.3696 20.224 11.4688 31.488l147.3024-25.9584c-5.12-28.8256-15.1552-55.8592-29.2352-80.3328z" fill="#FFE783" p-id="7621"></path><path d="M614.4512 513.8432c0 5.7344-0.5632 11.264-1.4848 16.7424l147.3536 25.9584c2.4064-13.8752 3.7376-28.16 3.7376-42.7008 0-14.592-1.3312-28.8256-3.7376-42.7008l-147.3536 25.9584c0.8704 5.4784 1.4848 11.0592 1.4848 16.7424z" fill="#B1F2E8" p-id="7622"></path><path d="M600.6272 564.4288c-5.6832 9.728-12.9536 18.3808-21.504 25.6512l96.1536 114.5856c21.8624-18.432 40.448-40.5504 54.9376-65.4336l-129.5872-74.8032z" fill="#FFE783" p-id="7623"></path><path d="M612.7104 531.8656c-2.048 11.264-5.9392 21.8624-11.4688 31.488l129.536 74.8032a247.85408 247.85408 0 0 0 29.2352-80.2816l-147.3024-26.0096z" fill="#AEDEFC" p-id="7624"></path><path d="M414.208 513.8432c0-5.7344 0.5632-11.264 1.4848-16.7424l-147.3536-25.9584c-2.4064 13.8752-3.7376 28.16-3.7376 42.7008 0 14.592 1.3312 28.8256 3.7376 42.7008l147.3536-25.9584c-0.8704-5.4272-1.4848-11.008-1.4848-16.7424z" fill="#B1F2E8" p-id="7625"></path><path d="M428.032 564.4288l-129.5872 74.8032c14.4896 24.832 33.0752 47.0016 54.9376 65.4336l96.1536-114.5856a99.6096 99.6096 0 0 1-21.504-25.6512zM480.7168 419.6352c10.3424-3.6864 21.4016-5.7856 32.9728-5.888V264.192c-29.5424 0.0512-57.856 5.2736-84.1728 14.7968l51.2 140.6464z" fill="#AEDEFC" p-id="7626"></path><path d="M513.6896 613.9392c-11.5712-0.0512-22.6304-2.2016-32.9728-5.888l-51.2 140.6464a250.33728 250.33728 0 0 0 84.1728 14.7968v-149.5552z" fill="#FFE783" p-id="7627"></path><path d="M578.2016 590.9504c-8.6016 7.1168-18.432 12.6976-29.0304 16.6912l51.2 140.6976c27.1872-9.984 52.1728-24.576 73.984-42.8032l-96.1536-114.5856zM479.5392 607.6416c-10.6496-3.9424-20.48-9.5744-29.0304-16.6912l-96.1024 114.5344c21.8112 18.2272 46.7456 32.8192 73.984 42.8032l51.1488-140.6464z" fill="#B1F2E8" p-id="7628"></path><path d="M547.9424 608.0512c-10.3424 3.6864-21.4016 5.7856-32.9728 5.888v149.5552c29.5424-0.0512 57.856-5.2736 84.1728-14.7968l-51.2-140.6464z" fill="#AEDEFC" p-id="7629"></path><path d="M450.4576 436.736c8.6016-7.1168 18.432-12.6976 29.0304-16.6912l-51.2-140.6976a249.64096 249.64096 0 0 0-73.984 42.8032L450.4576 436.736z" fill="#B1F2E8" p-id="7630"></path><path d="M427.3664 563.3024a99.6352 99.6352 0 0 1-11.4688-31.488l-147.3024 25.9584c5.12 28.7744 15.1552 55.808 29.2352 80.2816l129.536-74.752z" fill="#FFE783" p-id="7631"></path><path d="M415.8976 495.872c2.048-11.264 5.9392-21.8624 11.4688-31.488l-129.536-74.8032a247.85408 247.85408 0 0 0-29.2352 80.2816l147.3024 26.0096z" fill="#AEDEFC" p-id="7632"></path><path d="M345.1904 420.3008c-3.9424 0-7.936-1.1264-11.4688-3.5328a20.50048 20.50048 0 0 1-5.5296-28.416 224.26624 224.26624 0 0 1 186.0608-98.9184c11.3152 0 20.48 9.1648 20.48 20.48s-9.1648 20.48-20.48 20.48c-61.0304 0-117.9136 30.2592-152.1152 80.896-3.8912 5.888-10.3424 9.0112-16.9472 9.0112z" fill="#FFFFFF" p-id="7633"></path></svg>